<svg width="167" height="33" fill="none" xmlns="http://www.w3.org/2000/svg"><path d="M56.456 29.167c0 .611.373.917 1.12.917V31h-7.845v-.916c.238 0 .45-.077.637-.23.186-.152.28-.381.28-.687V8.905h-8.406c-.306 0-.603.085-.892.255-.289.17-.433.492-.433.967H40V3h.917c0 .475.144.798.433.967.289.17.586.255.892.255h22.62c.306 0 .603-.085.892-.255.288-.17.433-.492.433-.967h.917v7.127h-.917c0-.475-.145-.797-.433-.967a1.738 1.738 0 0 0-.892-.255h-8.406v20.262Zm31.964-8.553-4.28-9.469-4.789 9.47h9.069Zm-19.207 9.47a1.49 1.49 0 0 0 1.044-.662c.255-.373.501-.798.739-1.273L80.42 8.345c.238-.44.45-.848.637-1.221.187-.374.28-.696.28-.968 0-.339-.119-.577-.357-.712a2.998 2.998 0 0 0-.764-.306v-.916h8.61v.916a4.139 4.139 0 0 0-.713.28c-.238.119-.357.365-.357.738 0 .272.06.543.179.815.119.271.297.628.535 1.069l10.597 20.72c.17.373.399.645.687.814.289.17.62.34.994.51V31h-8.967v-.916c.136 0 .306-.051.51-.153.203-.102.305-.255.305-.458 0-.34-.135-.78-.407-1.324l-1.936-3.767h-12.43l-1.834 3.614c-.34.713-.51 1.222-.51 1.528 0 .373.323.56.968.56V31h-7.234v-.916Zm52.088-13.95c1.222 0 2.241-.093 3.056-.28.815-.186 1.461-.45 1.936-.788.476-.34.815-.739 1.019-1.197a3.65 3.65 0 0 0 .306-1.502 3.65 3.65 0 0 0-.306-1.502c-.204-.458-.543-.857-1.019-1.196-.475-.34-1.121-.602-1.936-.789-.815-.187-1.834-.28-3.056-.28h-8.814v7.534h8.814Zm1.324-11.912c1.63 0 3.108.144 4.433.433 1.324.288 2.462.746 3.413 1.374a6.325 6.325 0 0 1 2.191 2.444c.509 1 .764 2.231.764 3.69 0 2.24-.662 3.955-1.987 5.142-1.325 1.188-3.108 1.986-5.349 2.393l6.775 9.673c.238.34.518.543.841.61.323.069.62.103.892.103V31h-9.527v-.916c.305 0 .568-.051.789-.153.221-.102.331-.238.331-.407 0-.17-.068-.365-.203-.586-.136-.22-.34-.517-.612-.89l-5.604-7.942h-7.285v9.061c0 .306.11.535.331.688.221.152.62.229 1.197.229V31h-8.814v-.916c.985 0 1.478-.306 1.478-.917V6.055c0-.611-.493-.917-1.478-.917v-.916h17.424Zm33.727 24.945c0 .611.374.917 1.121.917V31h-7.846v-.916c.238 0 .45-.077.637-.23.187-.152.28-.381.28-.687V8.905h-8.406a1.74 1.74 0 0 0-.892.255c-.288.17-.433.492-.433.967h-.917V3h.917c0 .475.145.798.433.967.289.17.586.255.892.255h22.62c.306 0 .603-.085.892-.255.289-.17.433-.492.433-.967H167v7.127h-.917c0-.475-.144-.797-.433-.967a1.74 1.74 0 0 0-.892-.255h-8.406v20.262Z" fill="#212121"/><path d="m3.45 22.637.628.309c0 .37.084.699.25.987.294.493.869.976 1.726 1.45.858.472 1.84.894 2.949 1.264 1.108.37 2.269.668 3.482.894 1.213.226 2.3.34 3.262.34.711 0 1.631-.052 2.76-.155a16.673 16.673 0 0 0 3.326-.648c1.087-.328 2.028-.78 2.823-1.357.795-.575 1.192-1.336 1.192-2.282 0-.945-.366-1.645-1.098-2.097-.732-.452-1.694-.781-2.886-.987-1.192-.206-2.551-.34-4.078-.4a126.262 126.262 0 0 1-4.674-.278 43.256 43.256 0 0 1-4.674-.617c-1.526-.288-2.886-.771-4.078-1.45a8.05 8.05 0 0 1-2.886-2.775C.742 13.663.376 12.13.376 10.239c0-1.275.304-2.529.91-3.762.607-1.234 1.537-2.324 2.792-3.27C5.333 2.262 6.922 1.491 8.846.894 10.77.298 13.028 0 15.622 0c2.216 0 4.14.164 5.771.493 1.632.33 3.043.679 4.235 1.049 1.192.37 2.196.72 3.012 1.049.815.329 1.495.493 2.039.493.585 0 1.004-.123 1.255-.37l.752.493-4.329 7.71-.627-.246c-.084-.576-.25-1.049-.502-1.419-.335-.493-.889-.976-1.662-1.45-.774-.472-1.684-.894-2.73-1.264a22.52 22.52 0 0 0-3.387-.894 19.813 19.813 0 0 0-3.64-.34c-.92 0-1.87.073-2.854.217-.983.143-1.871.36-2.666.647-.795.288-1.453.668-1.976 1.141a2.275 2.275 0 0 0-.784 1.758c0 .987.365 1.727 1.097 2.22.732.494 1.694.864 2.886 1.111 1.192.247 2.552.411 4.078.494 1.527.082 3.085.185 4.674.308 1.59.123 3.148.34 4.674.648 1.527.308 2.886.801 4.078 1.48a8.138 8.138 0 0 1 2.886 2.745C32.634 19.224 33 20.725 33 22.576c0 2.138-.575 3.886-1.725 5.243-1.15 1.357-2.583 2.426-4.298 3.207-1.715.782-3.565 1.306-5.552 1.573-1.987.267-3.838.401-5.552.401-2.384 0-4.382-.134-5.992-.4-1.61-.268-2.948-.597-4.015-.988-1.067-.39-1.914-.74-2.54-1.048-.628-.309-1.172-.463-1.632-.463-.293 0-.565.164-.816.493L0 30.101l3.45-7.464Z" fill="#DD1B57"/></svg>